<svg id="Layer_1" data-name="Layer 1" xmlns="http://www.w3.org/2000/svg" xmlns:xlink="http://www.w3.org/1999/xlink" viewBox="0 0 1921 1061.92"><defs><style>.cls-1{stroke:#000;stroke-miterlimit:10;fill:url(#linear-gradient);}</style><linearGradient id="linear-gradient" x1="-0.5" y1="529.96" x2="1919.5" y2="529.96" gradientUnits="userSpaceOnUse"><stop offset="0" stop-color="#fd5488"/><stop offset="1" stop-color="#4a2d31"/></linearGradient></defs><title>bg</title><path class="cls-1" d="M195.23,877.28A345.67,345.67,0,0,1,325,917.11c2.94,1.61,6,3.29,9.45,3.71,4.09.5,8-.86,11.78-2.11C387.8,904.8,434.73,901,480.13,905.49c44,4.36,87.43,16.73,124.79,37.2,4.49,2.46,9.17,5.11,14.48,5.55,4.12.34,8.13-.71,12-1.7,87.78-22.38,178.19-17.35,259.25,25.07,4.69,2.46,9.63,5.11,15.12,5.33,4.32.18,8.39-1.19,12.35-2.45,41.23-13.13,87-17,131.76-12.59,45.79,4.54,90.51,18,129.23,39.39,2.52,1.39,5.12,2.86,8.09,3.31s6.15-.2,9.1-.87c46.5-10.51,89-18.52,138.47-13.62,44.65,4.42,89.24,17.06,126.83,38.29,2.69,1.51,5.45,3.11,8.63,3.62a26.2,26.2,0,0,0,8.56-.5c90-15.32,173.2-22.7,257.48,20.75,5.76,3,11.55,6.17,18.12,7.47,11,2.18,22.09-1.31,32.6-4.2,3.38-.93,6.8-1.8,10.23-2.61a321.69,321.69,0,0,1,107.38-6.77c5,.52,9.94,1.16,14.87,1.89V-.5H-.5V917.19C53.46,885.68,122.23,870.05,195.23,877.28Z" transform="translate(1 1)"/></svg>