<svg id="Layer_1" data-name="Layer 1" xmlns="http://www.w3.org/2000/svg" viewBox="0 0 1706.81 165.7"><defs><style>.cls-1{fill:#fff;}</style></defs><title>btm-bubbles</title><path class="cls-1" d="M1616.52,1055.39c-37.38-3.64-75.76-.19-110.23,11.54-3.48,1.18-7.06,2.47-10.85,2.3-4.77-.21-9-2.66-13-4.92-67.78-38-145.71-39.93-219.29-20-3,.82-6.17,1.65-9.36,1.28-3.58-.41-6.71-2.28-9.74-4-31.71-18.34-69-29.28-106.57-32.95-39.47-3.85-74.09,2-111.07,11.42a30.45,30.45,0,0,1-9.11,1.34c-3.53-.2-6.83-1.58-10-2.93-36.5-15.42-68.61-29.23-109.33-33.2-40.33-3.94-76,2.18-113.66,12.22-3,.8-6.14,1.62-9.32,1.31-3.95-.38-7.41-2.43-10.75-4.34-31.61-18.1-68.42-28.92-105.81-32.56-41.5-4-76.56,3.19-115.7,12.24a24.43,24.43,0,0,1-8.63.92c-3.38-.43-6.32-2.19-9.17-3.84-31.54-18.24-68.64-29.05-106-32.7-39.71-3.87-74.25,2.09-111.4,11.64-4.07,1.05-8.33,2.11-12.59,1.5s-8-2.82-11.65-4.88c-31.15-17.62-67.2-28-103.89-31.63C110.94,908.49,46.92,926.62-.5,961.1v118.4H1706.31A279.34,279.34,0,0,0,1616.52,1055.39Z" transform="translate(0.5 -913.8)"/></svg>