<?xml version="1.0" encoding="utf-8"?>
<!-- Generator: Adobe Illustrator 22.0.1, SVG Export Plug-In . SVG Version: 6.00 Build 0)  -->
<svg version="1.1" xmlns="http://www.w3.org/2000/svg" xmlns:xlink="http://www.w3.org/1999/xlink" x="0px" y="0px"
	 viewBox="0 0 800 800" style="enable-background:new 0 0 800 800;" xml:space="preserve">
<style type="text/css">
	.st0{display:none;}
	.st1{display:inline;fill:url(#SVGID_1_);}
	.st2{display:inline;}
	.st3{fill:#3E3F3F;}
	.st4{display:none;fill:#3E3F3F;}
	.st5{font-family:'Oswald-Light';}
	.st6{font-size:60.8095px;}
	.st7{letter-spacing:1;}
	.st8{display:none;fill:#6C6C6C;}
	.st9{font-family:'OpenSans-Light';}
	.st10{font-size:26.9654px;}
	.st11{opacity:0.2;fill:url(#SVGID_2_);}
	.st12{opacity:0.2;fill:url(#SVGID_3_);}
	.st13{opacity:0.2;fill:url(#SVGID_4_);}
	.st14{filter:url(#Adobe_OpacityMaskFilter);}
	.st15{fill:url(#SVGID_6_);}
	.st16{mask:url(#SVGID_5_);}
	.st17{fill:url(#SVGID_7_);}
	.st18{fill:url(#SVGID_8_);}
	.st19{fill:url(#SVGID_9_);}
	.st20{fill:url(#SVGID_10_);}
	.st21{opacity:0.1;fill:#FFFFFF;}
	.st22{fill:url(#SVGID_11_);}
	.st23{fill:url(#SVGID_12_);}
	.st24{fill:url(#SVGID_13_);}
	.st25{fill:url(#SVGID_14_);}
	.st26{opacity:0.1;fill:url(#SVGID_15_);}
	.st27{opacity:0.1;fill:url(#SVGID_16_);}
	.st28{opacity:0.1;fill:url(#SVGID_17_);}
	.st29{opacity:0.1;fill:url(#SVGID_18_);}
	.st30{opacity:0.1;fill:url(#SVGID_19_);}
	.st31{opacity:0.1;fill:url(#SVGID_20_);}
</style>
<g id="background" class="st0">
	
		<radialGradient id="SVGID_1_" cx="399.82" cy="431.854" r="184.0397" gradientTransform="matrix(3.7037 0 0 2.7895 -1080.8131 -804.6556)" gradientUnits="userSpaceOnUse">
		<stop  offset="0.4462" style="stop-color:#FFFFFF"/>
		<stop  offset="0.6131" style="stop-color:#FAFBFC"/>
		<stop  offset="0.8129" style="stop-color:#EBF0F5"/>
		<stop  offset="1" style="stop-color:#D7E0EB"/>
	</radialGradient>
	<rect x="0" class="st1" width="800" height="800"/>
</g>
<g id="objects">
	<g class="st0">
		<g class="st2">
			<path class="st3" d="M288.5,778.7v-0.3c-0.4,0.4-0.7,0.7-1,1c-0.3,0.2-0.7,0.4-1.1,0.6c-0.4,0.1-0.8,0.2-1.3,0.2
				c-0.6,0-1.2-0.1-1.7-0.4c-0.5-0.3-1-0.6-1.4-1.1c-0.4-0.5-0.7-1.1-0.9-1.7c-0.2-0.7-0.3-1.4-0.3-2.1c0-1.6,0.4-2.9,1.2-3.8
				c0.8-0.9,1.8-1.4,3.1-1.4c0.7,0,1.4,0.1,1.9,0.4c0.5,0.3,1,0.7,1.5,1.2v-3.8c0-0.5,0.1-0.9,0.3-1.2c0.2-0.3,0.5-0.4,0.9-0.4
				c0.4,0,0.7,0.1,0.9,0.4c0.2,0.3,0.3,0.6,0.3,1.1v11.4c0,0.5-0.1,0.9-0.3,1.1c-0.2,0.2-0.5,0.4-0.9,0.4c-0.4,0-0.6-0.1-0.9-0.4
				C288.6,779.5,288.5,779.1,288.5,778.7z M283.4,774.9c0,0.7,0.1,1.3,0.3,1.8c0.2,0.5,0.5,0.9,0.9,1.1c0.4,0.3,0.8,0.4,1.2,0.4
				c0.5,0,0.9-0.1,1.3-0.4c0.4-0.2,0.7-0.6,0.9-1.1c0.2-0.5,0.3-1.1,0.3-1.8c0-0.7-0.1-1.3-0.3-1.8c-0.2-0.5-0.5-0.9-0.9-1.1
				c-0.4-0.3-0.8-0.4-1.3-0.4c-0.5,0-0.9,0.1-1.3,0.4c-0.4,0.3-0.7,0.7-0.9,1.2C283.5,773.6,283.4,774.2,283.4,774.9z"/>
			<path class="st3" d="M299.9,775.5h-5.1c0,0.6,0.1,1.1,0.4,1.6c0.2,0.4,0.5,0.8,0.9,1c0.4,0.2,0.8,0.3,1.3,0.3
				c0.3,0,0.6,0,0.8-0.1c0.3-0.1,0.5-0.2,0.7-0.3c0.2-0.2,0.5-0.3,0.7-0.5c0.2-0.2,0.5-0.4,0.8-0.7c0.1-0.1,0.3-0.2,0.6-0.2
				c0.3,0,0.5,0.1,0.6,0.2c0.2,0.2,0.2,0.4,0.2,0.6c0,0.2-0.1,0.5-0.3,0.8c-0.2,0.3-0.5,0.6-0.8,0.9c-0.4,0.3-0.8,0.5-1.4,0.7
				c-0.6,0.2-1.2,0.3-1.9,0.3c-1.7,0-3-0.5-3.9-1.4c-0.9-1-1.4-2.2-1.4-3.9c0-0.8,0.1-1.5,0.3-2.1c0.2-0.7,0.6-1.2,1-1.7
				c0.4-0.5,1-0.8,1.6-1.1c0.6-0.2,1.4-0.4,2.1-0.4c1,0,1.9,0.2,2.6,0.6c0.7,0.4,1.3,1,1.6,1.7c0.4,0.7,0.5,1.4,0.5,2.1
				c0,0.7-0.2,1.1-0.6,1.3C301.1,775.4,300.6,775.5,299.9,775.5z M294.9,774h4.7c-0.1-0.9-0.3-1.5-0.7-2c-0.4-0.4-1-0.7-1.6-0.7
				c-0.6,0-1.2,0.2-1.6,0.7C295.2,772.5,294.9,773.2,294.9,774z"/>
			<path class="st3" d="M311.7,776.8c0,0.7-0.2,1.3-0.5,1.8c-0.3,0.5-0.9,0.9-1.5,1.2c-0.7,0.3-1.5,0.4-2.5,0.4
				c-0.9,0-1.7-0.1-2.4-0.4c-0.7-0.3-1.2-0.6-1.5-1.1c-0.3-0.4-0.5-0.9-0.5-1.3c0-0.3,0.1-0.5,0.3-0.7c0.2-0.2,0.5-0.3,0.8-0.3
				c0.3,0,0.5,0.1,0.6,0.2c0.1,0.1,0.3,0.3,0.4,0.6c0.3,0.5,0.6,0.8,1,1c0.4,0.2,0.9,0.3,1.5,0.3c0.5,0,0.9-0.1,1.3-0.3
				c0.3-0.2,0.5-0.5,0.5-0.8c0-0.5-0.2-0.8-0.5-1c-0.3-0.2-0.9-0.4-1.7-0.6c-0.9-0.2-1.6-0.5-2.2-0.7c-0.6-0.2-1-0.6-1.3-1
				c-0.3-0.4-0.5-0.9-0.5-1.5c0-0.5,0.2-1,0.5-1.5c0.3-0.5,0.8-0.8,1.4-1.1c0.6-0.3,1.3-0.4,2.2-0.4c0.7,0,1.3,0.1,1.8,0.2
				c0.5,0.1,1,0.3,1.3,0.6c0.4,0.2,0.6,0.5,0.8,0.8c0.2,0.3,0.3,0.6,0.3,0.8c0,0.3-0.1,0.5-0.3,0.7c-0.2,0.2-0.5,0.3-0.9,0.3
				c-0.3,0-0.5-0.1-0.7-0.2c-0.2-0.1-0.4-0.4-0.6-0.7c-0.2-0.3-0.4-0.5-0.7-0.6c-0.3-0.2-0.6-0.2-1.1-0.2c-0.5,0-0.9,0.1-1.2,0.3
				c-0.3,0.2-0.5,0.4-0.5,0.7c0,0.3,0.1,0.5,0.3,0.7c0.2,0.2,0.5,0.3,0.9,0.4c0.4,0.1,0.9,0.3,1.6,0.4c0.8,0.2,1.5,0.4,2,0.7
				c0.5,0.3,0.9,0.6,1.2,1C311.6,775.9,311.7,776.3,311.7,776.8z"/>
			<path class="st3" d="M314.4,768.4c-0.4,0-0.7-0.1-0.9-0.3c-0.3-0.2-0.4-0.5-0.4-0.9c0-0.4,0.1-0.7,0.4-0.9
				c0.3-0.2,0.6-0.4,0.9-0.4c0.3,0,0.6,0.1,0.9,0.3c0.3,0.2,0.4,0.5,0.4,0.9c0,0.4-0.1,0.7-0.4,0.9
				C315,768.3,314.7,768.4,314.4,768.4z M315.7,771.1v7.5c0,0.5-0.1,0.9-0.4,1.2c-0.2,0.3-0.6,0.4-0.9,0.4c-0.4,0-0.7-0.1-0.9-0.4
				c-0.2-0.3-0.4-0.7-0.4-1.2v-7.4c0-0.5,0.1-0.9,0.4-1.2c0.2-0.3,0.5-0.4,0.9-0.4c0.4,0,0.7,0.1,0.9,0.4
				C315.6,770.3,315.7,770.6,315.7,771.1z"/>
			<path class="st3" d="M327,771.5v7.5c0,0.9-0.1,1.6-0.3,2.2c-0.2,0.6-0.5,1.1-0.9,1.5c-0.4,0.4-0.9,0.7-1.6,0.9
				c-0.7,0.2-1.5,0.3-2.4,0.3c-0.9,0-1.7-0.1-2.4-0.4c-0.7-0.2-1.2-0.6-1.6-1c-0.4-0.4-0.6-0.8-0.6-1.2c0-0.3,0.1-0.6,0.3-0.8
				c0.2-0.2,0.5-0.3,0.8-0.3c0.4,0,0.7,0.2,1,0.5c0.1,0.2,0.3,0.3,0.4,0.5c0.1,0.2,0.3,0.3,0.5,0.4c0.2,0.1,0.4,0.2,0.7,0.3
				c0.3,0.1,0.5,0.1,0.9,0.1c0.7,0,1.2-0.1,1.6-0.3c0.4-0.2,0.6-0.4,0.8-0.8c0.1-0.3,0.2-0.7,0.3-1.1c0-0.4,0-1,0.1-1.9
				c-0.4,0.6-0.9,1-1.4,1.3c-0.5,0.3-1.1,0.4-1.9,0.4c-0.9,0-1.6-0.2-2.3-0.7c-0.7-0.4-1.2-1.1-1.5-1.9c-0.3-0.8-0.5-1.7-0.5-2.8
				c0-0.8,0.1-1.5,0.3-2.1c0.2-0.6,0.5-1.2,0.9-1.6c0.4-0.4,0.8-0.8,1.4-1s1.1-0.3,1.7-0.3c0.7,0,1.4,0.1,1.9,0.4
				c0.5,0.3,1,0.7,1.5,1.3V771c0-0.4,0.1-0.8,0.3-1s0.5-0.4,0.9-0.4c0.5,0,0.8,0.2,1,0.5C327,770.4,327,770.9,327,771.5z
				 M319.5,774.8c0,1,0.2,1.8,0.7,2.4c0.5,0.5,1.1,0.8,1.8,0.8c0.4,0,0.8-0.1,1.2-0.3c0.4-0.2,0.7-0.6,0.9-1c0.2-0.5,0.4-1,0.4-1.7
				c0-1.1-0.2-1.9-0.7-2.5c-0.5-0.6-1.1-0.9-1.8-0.9c-0.7,0-1.3,0.3-1.8,0.8C319.7,773,319.5,773.8,319.5,774.8z"/>
			<path class="st3" d="M331.2,771v0.3c0.5-0.6,1-1,1.5-1.3c0.5-0.3,1.2-0.4,1.9-0.4c0.7,0,1.3,0.2,1.8,0.4c0.5,0.3,0.9,0.7,1.2,1.3
				c0.2,0.3,0.3,0.7,0.3,1c0.1,0.4,0.1,0.8,0.1,1.4v4.8c0,0.5-0.1,0.9-0.4,1.2c-0.2,0.3-0.5,0.4-0.9,0.4c-0.4,0-0.7-0.1-0.9-0.4
				c-0.2-0.3-0.4-0.7-0.4-1.2v-4.3c0-0.9-0.1-1.5-0.4-2c-0.2-0.4-0.7-0.7-1.4-0.7c-0.5,0-0.9,0.1-1.3,0.4c-0.4,0.3-0.7,0.7-0.8,1.1
				c-0.1,0.4-0.2,1.1-0.2,2.2v3.2c0,0.5-0.1,0.9-0.4,1.2c-0.2,0.3-0.6,0.4-0.9,0.4c-0.4,0-0.7-0.1-0.9-0.4c-0.2-0.3-0.4-0.7-0.4-1.2
				v-7.5c0-0.5,0.1-0.9,0.3-1.1c0.2-0.2,0.5-0.4,0.9-0.4c0.2,0,0.4,0.1,0.6,0.2c0.2,0.1,0.3,0.3,0.4,0.5
				C331.1,770.5,331.2,770.7,331.2,771z"/>
			<path class="st3" d="M346.9,775.5h-5.1c0,0.6,0.1,1.1,0.4,1.6c0.2,0.4,0.5,0.8,0.9,1c0.4,0.2,0.8,0.3,1.3,0.3
				c0.3,0,0.6,0,0.9-0.1c0.3-0.1,0.5-0.2,0.7-0.3c0.2-0.2,0.5-0.3,0.7-0.5c0.2-0.2,0.5-0.4,0.8-0.7c0.1-0.1,0.3-0.2,0.6-0.2
				c0.3,0,0.5,0.1,0.6,0.2c0.2,0.2,0.2,0.4,0.2,0.6c0,0.2-0.1,0.5-0.3,0.8c-0.2,0.3-0.5,0.6-0.8,0.9c-0.4,0.3-0.8,0.5-1.4,0.7
				c-0.6,0.2-1.2,0.3-1.9,0.3c-1.7,0-3-0.5-3.9-1.4c-0.9-1-1.4-2.2-1.4-3.9c0-0.8,0.1-1.5,0.3-2.1c0.2-0.7,0.6-1.2,1-1.7
				c0.4-0.5,1-0.8,1.6-1.1c0.6-0.2,1.3-0.4,2.1-0.4c1,0,1.9,0.2,2.6,0.6c0.7,0.4,1.3,1,1.6,1.7c0.4,0.7,0.5,1.4,0.5,2.1
				c0,0.7-0.2,1.1-0.6,1.3C348.1,775.4,347.6,775.5,346.9,775.5z M341.9,774h4.7c-0.1-0.9-0.3-1.5-0.7-2c-0.4-0.4-1-0.7-1.6-0.7
				c-0.6,0-1.2,0.2-1.6,0.7C342.2,772.5,341.9,773.2,341.9,774z"/>
			<path class="st3" d="M357.5,778.7v-0.3c-0.4,0.4-0.7,0.7-1,1c-0.3,0.2-0.7,0.4-1.1,0.6c-0.4,0.1-0.8,0.2-1.3,0.2
				c-0.6,0-1.2-0.1-1.7-0.4c-0.5-0.3-1-0.6-1.4-1.1c-0.4-0.5-0.7-1.1-0.9-1.7c-0.2-0.7-0.3-1.4-0.3-2.1c0-1.6,0.4-2.9,1.2-3.8
				c0.8-0.9,1.8-1.4,3.1-1.4c0.7,0,1.4,0.1,1.9,0.4c0.5,0.3,1,0.7,1.5,1.2v-3.8c0-0.5,0.1-0.9,0.3-1.2c0.2-0.3,0.5-0.4,0.9-0.4
				c0.4,0,0.7,0.1,0.9,0.4c0.2,0.3,0.3,0.6,0.3,1.1v11.4c0,0.5-0.1,0.9-0.3,1.1c-0.2,0.2-0.5,0.4-0.9,0.4c-0.4,0-0.6-0.1-0.9-0.4
				C357.6,779.5,357.5,779.1,357.5,778.7z M352.4,774.9c0,0.7,0.1,1.3,0.3,1.8c0.2,0.5,0.5,0.9,0.9,1.1c0.4,0.3,0.8,0.4,1.2,0.4
				c0.5,0,0.9-0.1,1.3-0.4c0.4-0.2,0.7-0.6,0.9-1.1c0.2-0.5,0.3-1.1,0.3-1.8c0-0.7-0.1-1.3-0.3-1.8c-0.2-0.5-0.5-0.9-0.9-1.1
				c-0.4-0.3-0.8-0.4-1.3-0.4c-0.5,0-0.9,0.1-1.3,0.4c-0.4,0.3-0.7,0.7-0.9,1.2C352.5,773.6,352.4,774.2,352.4,774.9z"/>
			<path class="st3" d="M368.1,767.2v4c0.5-0.5,1-0.9,1.5-1.2c0.5-0.3,1.1-0.4,1.9-0.4c0.9,0,1.6,0.2,2.3,0.6c0.7,0.4,1.2,1,1.5,1.8
				c0.4,0.8,0.5,1.7,0.5,2.8c0,0.8-0.1,1.5-0.3,2.2c-0.2,0.7-0.5,1.2-0.9,1.7c-0.4,0.5-0.8,0.9-1.4,1.1c-0.5,0.3-1.1,0.4-1.8,0.4
				c-0.4,0-0.8,0-1.1-0.1c-0.4-0.1-0.7-0.2-0.9-0.4c-0.2-0.2-0.5-0.3-0.6-0.5c-0.2-0.2-0.4-0.4-0.7-0.7v0.3c0,0.5-0.1,0.9-0.4,1.1
				c-0.2,0.2-0.5,0.4-0.9,0.4c-0.4,0-0.7-0.1-0.9-0.4c-0.2-0.3-0.3-0.6-0.3-1.1v-11.3c0-0.5,0.1-0.9,0.3-1.2
				c0.2-0.3,0.5-0.4,0.9-0.4c0.4,0,0.7,0.1,0.9,0.4C368,766.4,368.1,766.8,368.1,767.2z M368.2,774.9c0,1,0.2,1.8,0.7,2.4
				c0.5,0.6,1.1,0.8,1.9,0.8c0.7,0,1.2-0.3,1.7-0.9c0.5-0.6,0.7-1.4,0.7-2.4c0-0.7-0.1-1.3-0.3-1.8c-0.2-0.5-0.5-0.9-0.8-1.1
				c-0.4-0.3-0.8-0.4-1.3-0.4c-0.5,0-0.9,0.1-1.3,0.4c-0.4,0.3-0.7,0.7-0.9,1.2C368.3,773.6,368.2,774.2,368.2,774.9z"/>
			<path class="st3" d="M379.1,780.5l0.2-0.6l-3.2-8c-0.2-0.5-0.3-0.8-0.3-1c0-0.2,0.1-0.4,0.2-0.6c0.1-0.2,0.3-0.3,0.5-0.5
				c0.2-0.1,0.4-0.2,0.6-0.2c0.4,0,0.7,0.1,0.8,0.4c0.2,0.2,0.4,0.6,0.5,1l2.2,6.4l2.1-5.9c0.2-0.5,0.3-0.9,0.4-1.1
				c0.1-0.3,0.3-0.5,0.4-0.5c0.1-0.1,0.4-0.1,0.6-0.1c0.2,0,0.4,0.1,0.6,0.2c0.2,0.1,0.3,0.2,0.4,0.4c0.1,0.2,0.1,0.4,0.1,0.6
				c0,0.1-0.1,0.3-0.1,0.5c-0.1,0.2-0.1,0.4-0.2,0.7l-3.4,8.8c-0.3,0.8-0.6,1.4-0.9,1.8c-0.3,0.4-0.7,0.8-1.1,1
				c-0.5,0.2-1.1,0.4-1.9,0.4c-0.8,0-1.3-0.1-1.7-0.2c-0.4-0.2-0.6-0.5-0.6-0.9c0-0.3,0.1-0.5,0.3-0.7c0.2-0.2,0.4-0.2,0.8-0.2
				c0.1,0,0.3,0,0.4,0.1c0.2,0,0.3,0.1,0.4,0.1c0.3,0,0.5,0,0.7-0.1c0.2-0.1,0.3-0.2,0.5-0.5C378.8,781.2,379,780.9,379.1,780.5z"/>
		</g>
		<g class="st2">
			<path class="st3" d="M416.7,769.8h0.6v-0.8c0-0.8,0.1-1.5,0.3-1.9c0.2-0.5,0.6-0.8,1-1c0.5-0.2,1.2-0.3,2-0.3
				c1.5,0,2.3,0.4,2.3,1.1c0,0.2-0.1,0.4-0.2,0.6c-0.2,0.2-0.3,0.3-0.6,0.3c-0.1,0-0.3,0-0.5-0.1c-0.2,0-0.5-0.1-0.6-0.1
				c-0.5,0-0.8,0.1-0.9,0.4c-0.1,0.3-0.2,0.7-0.2,1.2v0.6h0.6c1,0,1.5,0.3,1.5,0.9c0,0.4-0.1,0.7-0.4,0.8c-0.3,0.1-0.6,0.2-1.1,0.2
				h-0.6v6.9c0,0.5-0.1,0.9-0.4,1.2c-0.2,0.3-0.6,0.4-0.9,0.4c-0.4,0-0.7-0.1-0.9-0.4c-0.2-0.3-0.4-0.7-0.4-1.2v-6.9h-0.7
				c-0.4,0-0.7-0.1-0.9-0.3c-0.2-0.2-0.3-0.4-0.3-0.7C415.4,770.1,415.8,769.8,416.7,769.8"/>
			<path class="st3" d="M425.2,776.4v2.2c0,0.5-0.1,0.9-0.4,1.2c-0.2,0.3-0.6,0.4-0.9,0.4c-0.4,0-0.7-0.1-0.9-0.4
				c-0.2-0.3-0.4-0.7-0.4-1.2v-7.2c0-1.2,0.4-1.8,1.3-1.8c0.4,0,0.7,0.1,0.9,0.4c0.2,0.3,0.3,0.7,0.3,1.2c0.3-0.5,0.6-0.9,0.9-1.2
				c0.3-0.3,0.8-0.4,1.3-0.4c0.5,0,1.1,0.1,1.6,0.4c0.5,0.3,0.8,0.6,0.8,1.1c0,0.3-0.1,0.6-0.3,0.8c-0.2,0.2-0.5,0.3-0.7,0.3
				c-0.1,0-0.3-0.1-0.7-0.2c-0.4-0.1-0.7-0.2-1-0.2c-0.4,0-0.7,0.1-0.9,0.3c-0.2,0.2-0.4,0.5-0.6,0.9c-0.1,0.4-0.2,0.9-0.3,1.4
				C425.2,775,425.2,775.6,425.2,776.4"/>
			<path class="st3" d="M437.1,775.5H432c0,0.6,0.1,1.1,0.4,1.6c0.2,0.4,0.5,0.8,0.9,1c0.4,0.2,0.8,0.3,1.3,0.3c0.3,0,0.6,0,0.8-0.1
				c0.3-0.1,0.5-0.2,0.7-0.3c0.2-0.2,0.5-0.3,0.7-0.5c0.2-0.2,0.5-0.4,0.8-0.7c0.1-0.1,0.3-0.2,0.6-0.2c0.3,0,0.5,0.1,0.6,0.2
				c0.2,0.1,0.2,0.3,0.2,0.6c0,0.2-0.1,0.5-0.3,0.8c-0.2,0.3-0.5,0.6-0.8,0.9c-0.4,0.3-0.8,0.5-1.4,0.7c-0.6,0.2-1.2,0.3-1.9,0.3
				c-1.7,0-3-0.5-3.9-1.4c-0.9-1-1.4-2.2-1.4-3.9c0-0.8,0.1-1.5,0.3-2.1c0.2-0.7,0.6-1.2,1-1.7c0.4-0.5,1-0.8,1.6-1.1
				c0.6-0.2,1.3-0.4,2.1-0.4c1,0,1.9,0.2,2.6,0.6c0.7,0.4,1.3,1,1.6,1.7c0.4,0.7,0.5,1.4,0.5,2.1c0,0.7-0.2,1.1-0.6,1.3
				C438.3,775.4,437.8,775.5,437.1,775.5 M432,774h4.7c-0.1-0.9-0.3-1.6-0.7-2c-0.4-0.4-1-0.7-1.6-0.7c-0.6,0-1.2,0.2-1.6,0.7
				C432.4,772.5,432.1,773.2,432,774"/>
			<path class="st3" d="M447.9,775.5h-5.1c0,0.6,0.1,1.1,0.4,1.6c0.2,0.4,0.5,0.8,0.9,1c0.4,0.2,0.8,0.3,1.3,0.3
				c0.3,0,0.6,0,0.8-0.1c0.3-0.1,0.5-0.2,0.7-0.3c0.2-0.2,0.5-0.3,0.7-0.5c0.2-0.2,0.5-0.4,0.8-0.7c0.1-0.1,0.3-0.2,0.6-0.2
				c0.3,0,0.5,0.1,0.7,0.2c0.2,0.1,0.2,0.3,0.2,0.6c0,0.2-0.1,0.5-0.3,0.8c-0.2,0.3-0.5,0.6-0.8,0.9c-0.4,0.3-0.8,0.5-1.4,0.7
				c-0.6,0.2-1.2,0.3-1.9,0.3c-1.7,0-3-0.5-3.9-1.4c-0.9-1-1.4-2.2-1.4-3.9c0-0.8,0.1-1.5,0.4-2.1c0.2-0.7,0.6-1.2,1-1.7
				c0.4-0.5,1-0.8,1.6-1.1c0.6-0.2,1.3-0.4,2.1-0.4c1,0,1.9,0.2,2.6,0.6c0.7,0.4,1.3,1,1.6,1.7c0.4,0.7,0.5,1.4,0.5,2.1
				c0,0.7-0.2,1.1-0.6,1.3C449.1,775.4,448.6,775.5,447.9,775.5 M442.8,774h4.7c-0.1-0.9-0.3-1.6-0.7-2c-0.4-0.4-1-0.7-1.6-0.7
				c-0.6,0-1.2,0.2-1.6,0.7C443.2,772.5,442.9,773.2,442.8,774"/>
			<path class="st3" d="M453.6,771.1v0.3c0.5-0.6,1-1,1.5-1.3c0.5-0.3,1.1-0.4,1.8-0.4c0.8,0,1.5,0.2,2.2,0.6c0.7,0.4,1.2,1,1.6,1.8
				c0.4,0.8,0.6,1.7,0.6,2.8c0,0.8-0.1,1.5-0.3,2.2c-0.2,0.7-0.5,1.2-0.9,1.7c-0.4,0.5-0.9,0.8-1.4,1c-0.5,0.2-1.1,0.4-1.7,0.4
				c-0.7,0-1.4-0.1-1.9-0.4c-0.5-0.3-1-0.7-1.4-1.3v3.9c0,1.1-0.4,1.7-1.2,1.7c-0.5,0-0.8-0.1-1-0.4c-0.2-0.3-0.2-0.7-0.2-1.3v-11.2
				c0-0.5,0.1-0.9,0.3-1.1c0.2-0.2,0.5-0.4,0.9-0.4c0.4,0,0.7,0.1,0.9,0.4C453.5,770.2,453.6,770.6,453.6,771.1 M458.7,774.8
				c0-0.7-0.1-1.3-0.3-1.8c-0.2-0.5-0.5-0.9-0.9-1.1c-0.4-0.3-0.8-0.4-1.2-0.4c-0.7,0-1.3,0.3-1.8,0.8c-0.5,0.6-0.7,1.4-0.7,2.5
				c0,1,0.2,1.8,0.7,2.4c0.5,0.6,1.1,0.9,1.8,0.9c0.4,0,0.8-0.1,1.2-0.4c0.4-0.2,0.7-0.6,0.9-1.1
				C458.6,776.1,458.7,775.5,458.7,774.8"/>
			<path class="st3" d="M463.9,768.4c-0.4,0-0.7-0.1-0.9-0.3c-0.3-0.2-0.4-0.5-0.4-0.9c0-0.4,0.1-0.7,0.4-0.9
				c0.3-0.2,0.6-0.4,0.9-0.4c0.3,0,0.6,0.1,0.9,0.3c0.3,0.2,0.4,0.5,0.4,0.9c0,0.4-0.1,0.7-0.4,0.9
				C464.5,768.3,464.2,768.4,463.9,768.4 M465.2,771.1v7.5c0,0.5-0.1,0.9-0.4,1.2c-0.2,0.3-0.6,0.4-0.9,0.4c-0.4,0-0.7-0.1-0.9-0.4
				c-0.2-0.3-0.4-0.7-0.4-1.2v-7.4c0-0.5,0.1-0.9,0.4-1.2c0.2-0.3,0.5-0.4,0.9-0.4c0.4,0,0.7,0.1,0.9,0.4
				C465,770.3,465.2,770.6,465.2,771.1"/>
			<path class="st3" d="M473.5,779l-2.3-3.8l-1.4,1.3v2.1c0,0.5-0.1,0.9-0.4,1.2c-0.3,0.3-0.6,0.4-0.9,0.4c-0.4,0-0.7-0.1-0.9-0.4
				c-0.2-0.3-0.3-0.7-0.3-1.2v-11.1c0-0.6,0.1-1,0.3-1.3c0.2-0.3,0.5-0.4,1-0.4c0.4,0,0.7,0.1,0.9,0.4c0.2,0.3,0.4,0.7,0.4,1.2v6.3
				l2.9-3.1c0.4-0.4,0.6-0.6,0.8-0.8c0.2-0.1,0.4-0.2,0.7-0.2c0.3,0,0.6,0.1,0.8,0.3c0.2,0.2,0.3,0.5,0.3,0.8c0,0.4-0.4,0.9-1.1,1.5
				l-1.4,1.3l2.7,4.2c0.2,0.3,0.3,0.5,0.4,0.7c0.1,0.2,0.1,0.3,0.1,0.5c0,0.4-0.1,0.7-0.3,1c-0.2,0.2-0.5,0.4-0.9,0.4
				c-0.3,0-0.6-0.1-0.7-0.3C474.1,779.7,473.8,779.4,473.5,779"/>
			<path class="st3" d="M479.2,780.2c-0.4,0-0.7-0.1-1-0.4c-0.3-0.2-0.4-0.6-0.4-1.1c0-0.4,0.1-0.7,0.4-1c0.3-0.3,0.6-0.4,1-0.4
				c0.4,0,0.7,0.1,1,0.4c0.3,0.3,0.4,0.6,0.4,1c0,0.5-0.1,0.8-0.4,1.1C479.9,780,479.5,780.2,479.2,780.2"/>
			<path class="st3" d="M492.1,776.9c0,0.3-0.1,0.7-0.3,1c-0.2,0.4-0.5,0.7-0.9,1.1c-0.4,0.3-0.9,0.6-1.5,0.8
				c-0.6,0.2-1.3,0.3-2,0.3c-1.6,0-2.9-0.5-3.8-1.4c-0.9-0.9-1.3-2.2-1.3-3.8c0-1.1,0.2-2,0.6-2.8c0.4-0.8,1-1.4,1.8-1.9
				c0.8-0.4,1.7-0.7,2.8-0.7c0.7,0,1.3,0.1,1.9,0.3c0.6,0.2,1,0.5,1.4,0.8c0.4,0.3,0.7,0.6,0.9,1c0.2,0.3,0.3,0.7,0.3,1
				c0,0.3-0.1,0.6-0.3,0.8c-0.2,0.2-0.5,0.3-0.8,0.3c-0.2,0-0.4-0.1-0.5-0.2c-0.1-0.1-0.3-0.3-0.5-0.5c-0.3-0.5-0.6-0.8-1-1.1
				c-0.3-0.2-0.8-0.4-1.3-0.4c-0.8,0-1.4,0.3-1.9,0.9c-0.5,0.6-0.7,1.4-0.7,2.5c0,0.5,0.1,0.9,0.2,1.3c0.1,0.4,0.3,0.8,0.5,1
				c0.2,0.3,0.5,0.5,0.8,0.7c0.3,0.2,0.7,0.2,1.1,0.2c0.5,0,1-0.1,1.3-0.4c0.4-0.2,0.7-0.6,1-1.1c0.2-0.3,0.3-0.5,0.5-0.7
				c0.2-0.2,0.4-0.2,0.7-0.2c0.3,0,0.6,0.1,0.8,0.4C492,776.4,492.1,776.7,492.1,776.9"/>
			<path class="st3" d="M503.3,774.9c0,0.8-0.1,1.5-0.4,2.1c-0.3,0.7-0.6,1.2-1.1,1.7c-0.5,0.5-1,0.8-1.6,1.1
				c-0.6,0.2-1.3,0.4-2.1,0.4c-0.8,0-1.5-0.1-2.1-0.4c-0.6-0.2-1.2-0.6-1.6-1.1c-0.5-0.5-0.8-1-1.1-1.7c-0.2-0.6-0.3-1.4-0.3-2.1
				c0-0.8,0.1-1.5,0.4-2.2c0.2-0.7,0.6-1.2,1-1.7c0.5-0.5,1-0.8,1.6-1.1c0.6-0.2,1.3-0.4,2.1-0.4c0.8,0,1.5,0.1,2.1,0.4
				c0.6,0.3,1.2,0.6,1.6,1.1c0.5,0.5,0.8,1,1,1.7C503.1,773.4,503.3,774.1,503.3,774.9 M500.6,774.9c0-1.1-0.2-1.9-0.7-2.5
				c-0.5-0.6-1.1-0.9-1.9-0.9c-0.5,0-1,0.1-1.3,0.4c-0.4,0.3-0.7,0.7-0.9,1.2c-0.2,0.5-0.3,1.1-0.3,1.8c0,0.7,0.1,1.3,0.3,1.8
				c0.2,0.5,0.5,0.9,0.9,1.2c0.4,0.3,0.8,0.4,1.4,0.4c0.8,0,1.4-0.3,1.9-0.9C500.4,776.7,500.6,775.9,500.6,774.9"/>
			<path class="st3" d="M513.1,775.1v3.4c0,0.5-0.1,1-0.4,1.2c-0.3,0.3-0.6,0.4-1,0.4c-0.4,0-0.7-0.1-1-0.4
				c-0.2-0.3-0.4-0.7-0.4-1.2v-4.1c0-0.7,0-1.2-0.1-1.5c0-0.3-0.2-0.7-0.4-0.9c-0.2-0.2-0.5-0.3-0.9-0.3c-0.8,0-1.4,0.3-1.7,0.9
				c-0.3,0.6-0.4,1.4-0.4,2.5v3.5c0,0.5-0.1,0.9-0.4,1.2c-0.2,0.3-0.6,0.4-1,0.4c-0.4,0-0.7-0.1-1-0.4c-0.3-0.3-0.4-0.7-0.4-1.2
				v-7.4c0-0.5,0.1-0.9,0.3-1.1c0.2-0.3,0.5-0.4,0.9-0.4c0.4,0,0.7,0.1,0.9,0.4c0.2,0.2,0.4,0.6,0.4,1v0.2c0.4-0.5,0.9-0.9,1.4-1.2
				c0.5-0.3,1.1-0.4,1.7-0.4c0.7,0,1.2,0.1,1.7,0.4c0.5,0.3,0.9,0.7,1.2,1.2c0.4-0.5,0.9-0.9,1.4-1.2c0.5-0.3,1-0.4,1.7-0.4
				c0.7,0,1.3,0.1,1.8,0.4c0.5,0.3,0.9,0.7,1.1,1.2c0.2,0.5,0.3,1.2,0.3,2.2v5.1c0,0.5-0.1,1-0.4,1.2c-0.2,0.3-0.6,0.4-1,0.4
				c-0.4,0-0.7-0.1-1-0.4c-0.3-0.3-0.4-0.7-0.4-1.2v-4.4c0-0.6,0-1-0.1-1.3c0-0.3-0.2-0.6-0.4-0.9c-0.2-0.2-0.5-0.3-1-0.3
				c-0.3,0-0.7,0.1-1,0.3c-0.3,0.2-0.5,0.5-0.7,0.8C513.2,773.2,513.1,774,513.1,775.1"/>
		</g>
		<g class="st2">
			<path class="st3" d="M392.4,774.3C392.4,774.2,392.4,774.2,392.4,774.3C392.4,774.2,392.4,774.2,392.4,774.3z"/>
			<path class="st3" d="M392.6,775.1L392.6,775.1c-0.1-0.2-0.1-0.5-0.1-0.7C392.5,774.6,392.5,774.8,392.6,775.1z"/>
			<path class="st3" d="M393.4,777.5C393.4,777.5,393.4,777.5,393.4,777.5C393.4,777.5,393.4,777.5,393.4,777.5z"/>
			<path class="st3" d="M393.3,777.3c0,0,0-0.1-0.1-0.1C393.3,777.2,393.3,777.3,393.3,777.3z"/>
			<path class="st3" d="M392.8,776c0.1,0.4,0.3,0.8,0.5,1.2C393.1,776.8,392.9,776.4,392.8,776L392.8,776z"/>
			<path class="st3" d="M402.5,764.3c0.5,0,0.9,0,1.3,0.1l0.1-0.8c0,0-1.2-0.4-2.7-0.2l-0.1-0.4c0.5-0.1,0.8-0.5,0.8-1
				c0-0.6-0.5-1-1.1-1c-0.6,0-1.1,0.5-1.1,1c0,0.5,0.4,0.9,0.8,1l0.1,0.5c-1.6,0.2-2.9,0.9-2.9,0.9l0.2,0.7c1-0.3,1.9-0.5,2.6-0.6
				C401.4,764.4,402,764.3,402.5,764.3z"/>
			<path class="st3" d="M393.4,768.2L393.4,768.2c0-0.1,0.1-0.1,0.1-0.1l-0.3-0.2l-0.5-0.4c0,0-0.8,0.7-1.4,2c0,0-0.1-0.1-0.1-0.1
				c-0.2-0.2-0.4-0.3-0.8-0.3c0,0,0,0,0,0c-0.2,0-0.3-0.1-0.4-0.1c0.1-0.1,0.1-0.3,0.1-0.4c0-0.4-0.3-0.7-0.7-0.7
				c-0.4,0-0.7,0.3-0.7,0.7c0,0.4,0.3,0.7,0.7,0.7c0.1,0,0.1,0,0.2,0c0.2,0.2,0.4,0.3,0.8,0.3c0.2,0,0.3,0,0.4,0.2
				c0.1,0.1,0.1,0.3,0.2,0.4c0,0,0,0,0,0c-0.4,1.2-0.3,2.7-0.3,2.7l1.1,0c0-0.5,0.1-1.5,0.4-2.2
				C392.7,769.1,393.4,768.2,393.4,768.2z"/>
			<path class="st3" d="M411.7,765.2c-0.4,0-0.7,0.3-0.7,0.7c0,0.1,0,0.1,0,0.2c-0.2,0.2-0.3,0.4-0.3,0.8c0,0.2,0,0.3-0.2,0.4
				c-0.1,0.1-0.2,0.1-0.3,0.1c-0.8-1.1-1.8-1.8-1.8-1.8l-0.8,0.8c0.6,0.5,1.2,1.2,1.7,2c0.4,0.6,0.8,1.3,1.1,2l1-0.5
				c0,0-0.5-1.2-1.1-2.2c0.1,0,0.2-0.1,0.3-0.2c0.2-0.2,0.3-0.4,0.3-0.8c0-0.2,0.1-0.3,0.2-0.4c0.1,0.1,0.3,0.1,0.4,0.1
				c0.4,0,0.7-0.3,0.7-0.7C412.3,765.5,412,765.2,411.7,765.2z"/>
			<path class="st3" d="M409,774.4c-1.4,0.7-3.7,1.6-6.8,2c-1.2,0.2-2.4,0.2-3.4,0.2c-1.4,0-2.6-0.1-3.6-0.2
				c-1.1-0.1-1.9-0.3-2.4-0.4c0.1,0.4,0.3,0.8,0.5,1.2c0,0,0,0,0,0c0,0.1,0,0.1,0.1,0.1c0,0,0,0.1,0.1,0.1c0,0,0,0,0,0
				c0.3,0.6,0.7,1.1,1.1,1.5c1.4,1.6,2.9,1.8,2.9,1.8h0l0,0c0,0,1.3,0.4,3.3,0.4c1.9,0,3.9-0.4,5.7-1.2c1.3-0.7,2.6-1.7,3.3-2.7
				c0.5-0.7,0.8-1.5,1-2.3c0.1-0.4,0.2-1.1,0.1-1.8C410.5,773.6,409.9,774,409,774.4z"/>
			<path class="st3" d="M393.9,768.5c0,0.1-0.7,0.9-1.1,2.3c-0.4,1-0.4,2.4-0.4,2.5v0c0,0.3,0,0.7,0.1,1c0,0,0,0,0,0
				c0,0,0,0.1,0,0.1c0,0.2,0.1,0.5,0.1,0.7c0.7,0.2,4.9,1.2,9.5,0.5c2.9-0.4,5.2-1.3,6.5-1.9c1.1-0.5,1.8-1,2.1-1.2
				c-0.3-1-1-2.6-1.7-3.6c-2-2.9-4.2-3.6-5.3-3.8c-0.4-0.1-0.8-0.1-1.2-0.1c-0.4,0-1,0-1.7,0.1c-0.7,0.1-1.6,0.3-2.5,0.6
				c-1.3,0.5-2.6,1.2-3.5,2l0,0C394.5,767.8,394.2,768.1,393.9,768.5z M406.1,767.8c1,0,1.7,0.8,1.7,1.7c0,1-0.8,1.7-1.7,1.7
				c-1,0-1.7-0.8-1.7-1.7C404.4,768.6,405.2,767.8,406.1,767.8z M397.9,767.8c1.6,0,2.8,1.3,2.8,2.8c0,1.6-1.3,2.8-2.8,2.8
				c-1.6,0-2.8-1.3-2.8-2.8C395.1,769,396.3,767.8,397.9,767.8z"/>
		</g>
	</g>
	<g>
		<text transform="matrix(1 0 0 1 263.1953 625.2211)" class="st4 st5 st6 st7">TEXT SPACE</text>
		<text transform="matrix(1 0 0 1 297.7305 664.0937)" class="st8 st9 st10">LOREM IPSUM</text>
		<g>
			
				<radialGradient id="SVGID_2_" cx="260.1724" cy="1603.4209" r="15.867" gradientTransform="matrix(11.2656 0 0 1.0804 -2522.3511 -1232.9561)" gradientUnits="userSpaceOnUse">
				<stop  offset="0" style="stop-color:#000000"/>
				<stop  offset="2.680647e-02" style="stop-color:#151515"/>
				<stop  offset="9.566015e-02" style="stop-color:#464646"/>
				<stop  offset="0.1701" style="stop-color:#727272"/>
				<stop  offset="0.2484" style="stop-color:#989898"/>
				<stop  offset="0.3316" style="stop-color:#B8B8B8"/>
				<stop  offset="0.4212" style="stop-color:#D2D2D2"/>
				<stop  offset="0.5196" style="stop-color:#E6E6E6"/>
				<stop  offset="0.6313" style="stop-color:#F4F4F4"/>
				<stop  offset="0.7678" style="stop-color:#FDFDFD"/>
				<stop  offset="1" style="stop-color:#FFFFFF"/>
			</radialGradient>
			<path class="st11" d="M587.4,499.4c0,9.5-80,17.1-178.8,17.1c-98.7,0-178.8-7.7-178.8-17.1c0-9.5,80-17.1,178.8-17.1
				C507.4,482.2,587.4,489.9,587.4,499.4z"/>
			
				<radialGradient id="SVGID_3_" cx="184.1538" cy="1603.4209" r="15.867" gradientTransform="matrix(10.0207 0 0 1.0804 -1673.7419 -1232.9561)" gradientUnits="userSpaceOnUse">
				<stop  offset="0" style="stop-color:#000000"/>
				<stop  offset="2.680647e-02" style="stop-color:#151515"/>
				<stop  offset="9.566015e-02" style="stop-color:#464646"/>
				<stop  offset="0.1701" style="stop-color:#727272"/>
				<stop  offset="0.2484" style="stop-color:#989898"/>
				<stop  offset="0.3316" style="stop-color:#B8B8B8"/>
				<stop  offset="0.4212" style="stop-color:#D2D2D2"/>
				<stop  offset="0.5196" style="stop-color:#E6E6E6"/>
				<stop  offset="0.6313" style="stop-color:#F4F4F4"/>
				<stop  offset="0.7678" style="stop-color:#FDFDFD"/>
				<stop  offset="1" style="stop-color:#FFFFFF"/>
			</radialGradient>
			<path class="st12" d="M330.6,499.4c0,9.5-71.2,17.1-159,17.1c-87.8,0-159-7.7-159-17.1c0-9.5,71.2-17.1,159-17.1
				C259.4,482.2,330.6,489.9,330.6,499.4z"/>
			
				<radialGradient id="SVGID_4_" cx="230.8474" cy="1603.4209" r="15.867" gradientTransform="matrix(10.0207 0 0 1.0804 -1673.7419 -1232.9561)" gradientUnits="userSpaceOnUse">
				<stop  offset="0" style="stop-color:#000000"/>
				<stop  offset="2.680647e-02" style="stop-color:#151515"/>
				<stop  offset="9.566015e-02" style="stop-color:#464646"/>
				<stop  offset="0.1701" style="stop-color:#727272"/>
				<stop  offset="0.2484" style="stop-color:#989898"/>
				<stop  offset="0.3316" style="stop-color:#B8B8B8"/>
				<stop  offset="0.4212" style="stop-color:#D2D2D2"/>
				<stop  offset="0.5196" style="stop-color:#E6E6E6"/>
				<stop  offset="0.6313" style="stop-color:#F4F4F4"/>
				<stop  offset="0.7678" style="stop-color:#FDFDFD"/>
				<stop  offset="1" style="stop-color:#FFFFFF"/>
			</radialGradient>
			<path class="st13" d="M798.5,499.4c0,9.5-71.2,17.1-159,17.1c-87.8,0-159-7.7-159-17.1c0-9.5,71.2-17.1,159-17.1
				C727.3,482.2,798.5,489.9,798.5,499.4z"/>
			<defs>
				<filter id="Adobe_OpacityMaskFilter" filterUnits="userSpaceOnUse" x="118.7" y="498.6" width="586.1" height="227.8">
					<feColorMatrix  type="matrix" values="1 0 0 0 0  0 1 0 0 0  0 0 1 0 0  0 0 0 1 0"/>
				</filter>
			</defs>
			<mask maskUnits="userSpaceOnUse" x="118.7" y="498.6" width="586.1" height="227.8" id="SVGID_5_">
				<g class="st14">
					<linearGradient id="SVGID_6_" gradientUnits="userSpaceOnUse" x1="397.2949" y1="683.1558" x2="397.2949" y2="391.7052">
						<stop  offset="0" style="stop-color:#000000"/>
						<stop  offset="0.1469" style="stop-color:#030303"/>
						<stop  offset="0.2753" style="stop-color:#0E0E0E"/>
						<stop  offset="0.3969" style="stop-color:#202020"/>
						<stop  offset="0.5142" style="stop-color:#393939"/>
						<stop  offset="0.6286" style="stop-color:#5A5A5A"/>
						<stop  offset="0.7408" style="stop-color:#828282"/>
						<stop  offset="0.851" style="stop-color:#B2B2B2"/>
						<stop  offset="0.9572" style="stop-color:#E7E7E7"/>
						<stop  offset="1" style="stop-color:#FFFFFF"/>
					</linearGradient>
					<rect x="35.6" y="433.8" class="st15" width="723.5" height="363"/>
				</g>
			</mask>
			<g class="st16">
				<g>
					
						<linearGradient id="SVGID_7_" gradientUnits="userSpaceOnUse" x1="39.7442" y1="427.7264" x2="951.3159" y2="427.7264" gradientTransform="matrix(1 0 0 -0.9295 0 1010.0507)">
						<stop  offset="0" style="stop-color:#FF00A6"/>
						<stop  offset="0.543" style="stop-color:#00B4EC"/>
						<stop  offset="1" style="stop-color:#FFFA00"/>
					</linearGradient>
					<polygon class="st17" points="704.9,498.6 606.4,498.6 477.2,726.4 575.7,726.4 					"/>
				</g>
				<g>
					
						<linearGradient id="SVGID_8_" gradientUnits="userSpaceOnUse" x1="39.7509" y1="427.7264" x2="951.3163" y2="427.7264" gradientTransform="matrix(1 0 0 -0.9295 0 1010.0507)">
						<stop  offset="0" style="stop-color:#FF00A6"/>
						<stop  offset="0.543" style="stop-color:#00B4EC"/>
						<stop  offset="1" style="stop-color:#FFFA00"/>
					</linearGradient>
					<polygon class="st18" points="457.2,498.6 358.7,498.6 477.2,726.4 575.7,726.4 					"/>
				</g>
				<g>
					
						<linearGradient id="SVGID_9_" gradientUnits="userSpaceOnUse" x1="39.7451" y1="427.7264" x2="951.3068" y2="427.7264" gradientTransform="matrix(1 0 0 -0.9295 0 1010.0507)">
						<stop  offset="0" style="stop-color:#FF00A6"/>
						<stop  offset="0.543" style="stop-color:#00B4EC"/>
						<stop  offset="1" style="stop-color:#FFFA00"/>
					</linearGradient>
					<polygon class="st19" points="457.2,498.6 358.7,498.6 223.4,726.4 321.8,726.4 					"/>
				</g>
				<g>
					
						<linearGradient id="SVGID_10_" gradientUnits="userSpaceOnUse" x1="39.7503" y1="427.7264" x2="951.2954" y2="427.7264" gradientTransform="matrix(1 0 0 -0.9295 0 1010.0507)">
						<stop  offset="0" style="stop-color:#FF00A6"/>
						<stop  offset="0.543" style="stop-color:#00B4EC"/>
						<stop  offset="1" style="stop-color:#FFFA00"/>
					</linearGradient>
					<polygon class="st20" points="217.2,498.6 118.7,498.6 223.4,726.4 321.8,726.4 					"/>
				</g>
				<polygon class="st21" points="118.7,498.6 321.8,726.4 223.4,726.4 				"/>
				<polygon class="st21" points="321.8,726.4 358.7,498.6 223.4,726.4 				"/>
				<polygon class="st21" points="457.2,498.6 477.2,726.4 575.7,726.4 				"/>
				<polygon class="st21" points="704.9,498.6 477.2,726.4 575.7,726.4 				"/>
				<polygon class="st21" points="457.2,498.6 223.4,726.4 321.8,726.4 				"/>
				<polygon class="st21" points="358.7,498.6 575.7,726.4 477.2,726.4 				"/>
			</g>
			<g>
				<g>
					<linearGradient id="SVGID_11_" gradientUnits="userSpaceOnUse" x1="477.1875" y1="376.0579" x2="704.8613" y2="376.0579">
						<stop  offset="0" style="stop-color:#FF00A6;stop-opacity:0.92"/>
						<stop  offset="0.55" style="stop-color:#FF48CD;stop-opacity:0.82"/>
						<stop  offset="1" style="stop-color:#FFFFFF"/>
					</linearGradient>
					<polygon class="st22" points="704.9,498.6 606.4,498.6 477.2,253.5 575.7,253.5 					"/>
				</g>
				<g>
					<linearGradient id="SVGID_12_" gradientUnits="userSpaceOnUse" x1="358.7368" y1="376.0579" x2="575.6543" y2="376.0579">
						<stop  offset="0" style="stop-color:#FF00A6;stop-opacity:0.92"/>
						<stop  offset="0.55" style="stop-color:#FF48CD;stop-opacity:0.82"/>
						<stop  offset="1" style="stop-color:#FFFFFF"/>
					</linearGradient>
					<polygon class="st23" points="457.2,498.6 358.7,498.6 477.2,253.5 575.7,253.5 					"/>
				</g>
				<g>
					<linearGradient id="SVGID_13_" gradientUnits="userSpaceOnUse" x1="223.3633" y1="376.0579" x2="457.1816" y2="376.0579">
						<stop  offset="0" style="stop-color:#FF00A6;stop-opacity:0.92"/>
						<stop  offset="0.55" style="stop-color:#FF48CD;stop-opacity:0.82"/>
						<stop  offset="1" style="stop-color:#FFFFFF"/>
					</linearGradient>
					<polygon class="st24" points="457.2,498.6 358.7,498.6 223.4,253.5 321.8,253.5 					"/>
				</g>
				<g>
					<linearGradient id="SVGID_14_" gradientUnits="userSpaceOnUse" x1="118.7471" y1="376.0579" x2="321.8154" y2="376.0579">
						<stop  offset="0" style="stop-color:#FF00A6;stop-opacity:0.92"/>
						<stop  offset="0.55" style="stop-color:#FF48CD;stop-opacity:0.82"/>
						<stop  offset="1" style="stop-color:#FFFFFF"/>
					</linearGradient>
					<polygon class="st25" points="217.2,498.6 118.7,498.6 223.4,253.5 321.8,253.5 					"/>
				</g>
				<linearGradient id="SVGID_15_" gradientUnits="userSpaceOnUse" x1="118.7471" y1="376.0579" x2="321.8154" y2="376.0579">
					<stop  offset="0" style="stop-color:#FF00A6;stop-opacity:0.92"/>
					<stop  offset="0.55" style="stop-color:#FF48CD;stop-opacity:0.82"/>
					<stop  offset="1" style="stop-color:#FFFFFF"/>
				</linearGradient>
				<polygon class="st26" points="118.7,498.6 321.8,253.5 223.4,253.5 				"/>
				<linearGradient id="SVGID_16_" gradientUnits="userSpaceOnUse" x1="223.3633" y1="376.0579" x2="358.7368" y2="376.0579">
					<stop  offset="0" style="stop-color:#FF00A6;stop-opacity:0.92"/>
					<stop  offset="0.55" style="stop-color:#FF48CD;stop-opacity:0.82"/>
					<stop  offset="1" style="stop-color:#FFFFFF"/>
				</linearGradient>
				<polygon class="st27" points="321.8,253.5 358.7,498.6 223.4,253.5 				"/>
				<linearGradient id="SVGID_17_" gradientUnits="userSpaceOnUse" x1="457.1816" y1="376.0579" x2="575.6543" y2="376.0579">
					<stop  offset="0" style="stop-color:#FF00A6;stop-opacity:0.92"/>
					<stop  offset="0.55" style="stop-color:#FF48CD;stop-opacity:0.82"/>
					<stop  offset="1" style="stop-color:#FFFFFF"/>
				</linearGradient>
				<polygon class="st28" points="457.2,498.6 477.2,253.5 575.7,253.5 				"/>
				<linearGradient id="SVGID_18_" gradientUnits="userSpaceOnUse" x1="477.1875" y1="376.0579" x2="704.8613" y2="376.0579">
					<stop  offset="0" style="stop-color:#FF00A6;stop-opacity:0.92"/>
					<stop  offset="0.55" style="stop-color:#FF48CD;stop-opacity:0.82"/>
					<stop  offset="1" style="stop-color:#FFFFFF"/>
				</linearGradient>
				<polygon class="st29" points="704.9,498.6 477.2,253.5 575.7,253.5 				"/>
				<linearGradient id="SVGID_19_" gradientUnits="userSpaceOnUse" x1="223.3633" y1="376.0579" x2="457.1816" y2="376.0579">
					<stop  offset="0" style="stop-color:#FF00A6;stop-opacity:0.92"/>
					<stop  offset="0.55" style="stop-color:#FF48CD;stop-opacity:0.82"/>
					<stop  offset="1" style="stop-color:#FFFFFF"/>
				</linearGradient>
				<polygon class="st30" points="457.2,498.6 223.4,253.5 321.8,253.5 				"/>
				<linearGradient id="SVGID_20_" gradientUnits="userSpaceOnUse" x1="358.7368" y1="376.0579" x2="575.6543" y2="376.0579">
					<stop  offset="0" style="stop-color:#FF00A6;stop-opacity:0.92"/>
					<stop  offset="0.55" style="stop-color:#FF48CD;stop-opacity:0.82"/>
					<stop  offset="1" style="stop-color:#FFFFFF"/>
				</linearGradient>
				<polygon class="st31" points="358.7,498.6 575.7,253.5 477.2,253.5 				"/>
			</g>
		</g>
	</g>
</g>
</svg>
