<svg xmlns="http://www.w3.org/2000/svg" xmlns:xlink="http://www.w3.org/1999/xlink" viewBox="0 0 265.05 106.16"><defs><style>.cls-1{fill:none;}.cls-2{isolation:isolate;}.cls-3{clip-path:url(#clip-path);}.cls-4{fill:url(#linear-gradient);}.cls-5{fill:url(#linear-gradient-2);}.cls-6{fill:url(#linear-gradient-3);}.cls-7{fill:url(#linear-gradient-4);}.cls-8{fill:url(#linear-gradient-5);}.cls-16,.cls-26,.cls-34,.cls-9{mix-blend-mode:screen;}.cls-9{fill:url(#linear-gradient-6);}.cls-10{fill:url(#radial-gradient);}.cls-11{fill:url(#radial-gradient-2);}.cls-12{fill:url(#radial-gradient-3);}.cls-13{fill:url(#radial-gradient-4);}.cls-14{fill:url(#linear-gradient-7);}.cls-15{fill:url(#linear-gradient-8);}.cls-16{fill:url(#linear-gradient-9);}.cls-17{fill:url(#linear-gradient-10);}.cls-18{fill:url(#linear-gradient-11);}.cls-19{fill:url(#linear-gradient-12);}.cls-20{fill:url(#radial-gradient-5);}.cls-21{fill:url(#radial-gradient-6);}.cls-22{fill:url(#radial-gradient-7);}.cls-23{fill:url(#linear-gradient-13);}.cls-24{fill:url(#linear-gradient-14);}.cls-25,.cls-33{mix-blend-mode:multiply;}.cls-25{fill:url(#linear-gradient-15);}.cls-26{fill:url(#linear-gradient-16);}.cls-27{fill:url(#radial-gradient-8);}.cls-28{fill:url(#radial-gradient-9);}.cls-29{fill:url(#radial-gradient-10);}.cls-30{fill:url(#radial-gradient-11);}.cls-31{fill:url(#linear-gradient-17);}.cls-32{fill:url(#linear-gradient-18);}.cls-33{fill:url(#linear-gradient-19);}.cls-34{fill:url(#linear-gradient-20);}.cls-35{fill:url(#radial-gradient-12);}.cls-36{fill:url(#radial-gradient-13);}.cls-37{fill:url(#radial-gradient-14);}</style><clipPath id="clip-path" transform="translate(-16.06 -103.3)"><rect class="cls-1" width="288" height="288"/></clipPath><linearGradient id="linear-gradient" x1="138.38" y1="190.16" x2="138.38" y2="212.01" gradientUnits="userSpaceOnUse"><stop offset="0" stop-color="#e4e6e8"/><stop offset="0.06" stop-color="#e1e2e4"/><stop offset="0.11" stop-color="#d6d8d9"/><stop offset="0.16" stop-color="#c4c5c6"/><stop offset="0.21" stop-color="#abacac"/><stop offset="0.23" stop-color="#9f9f9f"/><stop offset="0.66" stop-color="#ebebeb"/><stop offset="0.76" stop-color="#f2f2f2"/><stop offset="1" stop-color="#fff"/></linearGradient><linearGradient id="linear-gradient-2" x1="102.14" y1="103.35" x2="135.46" y2="103.56" gradientUnits="userSpaceOnUse"><stop offset="0" stop-color="#e4e6e8"/><stop offset="0.06" stop-color="#e1e2e4"/><stop offset="0.11" stop-color="#d6d8d9"/><stop offset="0.16" stop-color="#c4c5c6"/><stop offset="0.21" stop-color="#abacac"/><stop offset="0.23" stop-color="#9f9f9f"/><stop offset="0.34" stop-color="#b3b3b3"/><stop offset="0.72" stop-color="#f6f6f6"/><stop offset="0.9" stop-color="#ebebeb"/><stop offset="0.93" stop-color="#f2f2f2"/><stop offset="1" stop-color="#fff"/></linearGradient><linearGradient id="linear-gradient-3" x1="65.02" y1="195.93" x2="175.19" y2="118.52" gradientUnits="userSpaceOnUse"><stop offset="0" stop-color="#484848"/><stop offset="0.06" stop-color="#444"/><stop offset="0.12" stop-color="#393939"/><stop offset="0.17" stop-color="#262626"/><stop offset="0.23" stop-color="#0c0c0c"/><stop offset="0.23" stop-color="#0b0b0b"/><stop offset="0.32" stop-color="#141414"/><stop offset="1" stop-color="#575757"/></linearGradient><linearGradient id="linear-gradient-4" x1="59.3" y1="227.47" x2="215.93" y2="139.41" gradientUnits="userSpaceOnUse"><stop offset="0.03" stop-color="#b8b8b8"/><stop offset="0.89" stop-color="#fff"/></linearGradient><linearGradient id="linear-gradient-5" x1="67.5" y1="72.61" x2="222.11" y2="-29.24" gradientUnits="userSpaceOnUse"><stop offset="0.03" stop-color="#e8e8e9"/><stop offset="0.89" stop-color="#fff"/></linearGradient><linearGradient id="linear-gradient-6" x1="229.92" y1="141.89" x2="85.39" y2="145.59" gradientUnits="userSpaceOnUse"><stop offset="0"/><stop offset="0.29" stop-color="#020202"/><stop offset="0.43" stop-color="#0a0a0a"/><stop offset="0.53" stop-color="#171717"/><stop offset="0.62" stop-color="#292929"/><stop offset="0.7" stop-color="#414141"/><stop offset="0.77" stop-color="#5e5e5e"/><stop offset="0.84" stop-color="#818181"/><stop offset="0.9" stop-color="#aaa"/><stop offset="0.96" stop-color="#d7d7d7"/><stop offset="1" stop-color="#fff"/></linearGradient><radialGradient id="radial-gradient" cx="122.27" cy="36.53" r="48.35" gradientUnits="userSpaceOnUse"><stop offset="0.16" stop-color="silver"/><stop offset="0.38" stop-color="#8f8f8f"/><stop offset="0.44" stop-color="#8e8e8e"/><stop offset="1" stop-color="#868b8b"/></radialGradient><radialGradient id="radial-gradient-2" cx="148.99" cy="36.53" r="32.98" gradientUnits="userSpaceOnUse"><stop offset="0.01" stop-color="#21a0b3"/><stop offset="0.38" stop-color="#33b6cc"/><stop offset="0.73" stop-color="#3fc6dd"/><stop offset="1" stop-color="#44cde5"/></radialGradient><radialGradient id="radial-gradient-3" cx="88.86" cy="52.81" r="22.13" gradientUnits="userSpaceOnUse"><stop offset="0.16" stop-color="#edf49e"/><stop offset="0.38" stop-color="#efee82"/><stop offset="0.38" stop-color="#efee82"/><stop offset="0.75" stop-color="#f3e96d"/><stop offset="1" stop-color="#f4e765"/></radialGradient><radialGradient id="radial-gradient-4" cx="88.86" cy="20.25" r="22.13" gradientUnits="userSpaceOnUse"><stop offset="0.07" stop-color="silver"/><stop offset="1" stop-color="#868b8b"/></radialGradient><linearGradient id="linear-gradient-7" x1="178.11" y1="216.31" x2="252.86" y2="163.79" xlink:href="#linear-gradient-3"/><linearGradient id="linear-gradient-8" x1="174.74" y1="100.69" x2="279.92" y2="31.41" xlink:href="#linear-gradient-5"/><linearGradient id="linear-gradient-9" x1="290.64" y1="179.17" x2="192.65" y2="181.68" xlink:href="#linear-gradient-6"/><linearGradient id="linear-gradient-10" x1="175.06" y1="207.46" x2="281.11" y2="207.46" gradientUnits="userSpaceOnUse"><stop offset="0" stop-color="#2c2c2c"/><stop offset="0.01" stop-color="#4b4b4b"/><stop offset="0.02" stop-color="#636363"/><stop offset="0.02" stop-color="#6c6c6c"/><stop offset="0.03" stop-color="#767676"/><stop offset="0.04" stop-color="#919191"/><stop offset="0.04" stop-color="#a4a4a4"/><stop offset="0.05" stop-color="#afafaf"/><stop offset="0.06" stop-color="#b3b3b3"/><stop offset="0.07" stop-color="#b2b2b2"/><stop offset="0.13" stop-color="#a5a5a5"/><stop offset="0.84" stop-color="#a5a5a5"/><stop offset="0.84" stop-color="#a6a6a6"/><stop offset="0.93" stop-color="#b4b4b4"/><stop offset="0.94" stop-color="#aeaeae"/><stop offset="0.95" stop-color="#9e9e9e"/><stop offset="0.97" stop-color="#838383"/><stop offset="0.98" stop-color="#6c6c6c"/><stop offset="1" stop-color="#2c2c2c"/></linearGradient><linearGradient id="linear-gradient-11" x1="175.06" y1="206.95" x2="281.06" y2="206.95" gradientUnits="userSpaceOnUse"><stop offset="0" stop-color="#49494a"/><stop offset="0" stop-color="#565657"/><stop offset="0.01" stop-color="#7d7d7e"/><stop offset="0.02" stop-color="#969696"/><stop offset="0.02" stop-color="#9f9f9f"/><stop offset="0.03" stop-color="#c1c1c1"/><stop offset="0.04" stop-color="#dcdcdc"/><stop offset="0.05" stop-color="#efefef"/><stop offset="0.05" stop-color="#fafafa"/><stop offset="0.06" stop-color="#fefefe"/><stop offset="0.08" stop-color="#f8f8f8"/><stop offset="0.13" stop-color="#ebebeb"/><stop offset="0.84" stop-color="#ebebeb"/><stop offset="0.86" stop-color="#f1f1f1"/><stop offset="0.93" stop-color="#fff"/><stop offset="0.94" stop-color="#f9f9f9"/><stop offset="0.95" stop-color="#e9e9e9"/><stop offset="0.96" stop-color="#cecece"/><stop offset="0.97" stop-color="#a8a8a8"/><stop offset="0.98" stop-color="#9f9f9f"/><stop offset="1" stop-color="#49494a"/></linearGradient><linearGradient id="linear-gradient-12" x1="216.15" y1="205.81" x2="274.07" y2="205.81" gradientUnits="userSpaceOnUse"><stop offset="0" stop-color="#2c2c2c"/><stop offset="0.06" stop-color="#4b4b4b"/><stop offset="0.12" stop-color="#636363"/><stop offset="0.15" stop-color="#6c6c6c"/><stop offset="0.16" stop-color="#747474"/><stop offset="0.19" stop-color="#8f8f8f"/><stop offset="0.21" stop-color="#a2a2a2"/><stop offset="0.24" stop-color="#adadad"/><stop offset="0.27" stop-color="#b1b1b1"/><stop offset="0.37" stop-color="#a5a5a5"/><stop offset="0.69" stop-color="#a5a5a5"/><stop offset="0.69" stop-color="#a6a6a6"/><stop offset="0.78" stop-color="#b4b4b4"/><stop offset="0.8" stop-color="#aeaeae"/><stop offset="0.82" stop-color="#9e9e9e"/><stop offset="0.85" stop-color="#838383"/><stop offset="0.88" stop-color="#6c6c6c"/><stop offset="1" stop-color="#2c2c2c"/></linearGradient><radialGradient id="radial-gradient-5" cx="235.66" cy="168.45" r="32.98" gradientTransform="translate(69.48 -36.76) scale(0.68 0.67)" xlink:href="#radial-gradient-2"/><radialGradient id="radial-gradient-6" cx="213.79" cy="195.73" r="22.13" gradientTransform="translate(43.52 -45.13) scale(0.68 0.68)" xlink:href="#radial-gradient-3"/><radialGradient id="radial-gradient-7" cx="213.73" cy="173.68" r="22.13" gradientTransform="translate(43.56 -52.23) scale(0.68 0.68)" gradientUnits="userSpaceOnUse"><stop offset="0" stop-color="silver"/><stop offset="1" stop-color="#868b8b"/></radialGradient><linearGradient id="linear-gradient-13" x1="-8.96" y1="97.52" x2="21.82" y2="75.9" gradientUnits="userSpaceOnUse"><stop offset="0" stop-color="#333"/><stop offset="0.07" stop-color="#2f2f2f"/><stop offset="0.13" stop-color="#242424"/><stop offset="0.19" stop-color="#111"/><stop offset="0.23"/><stop offset="0.24" stop-color="#010101"/><stop offset="1" stop-color="#444"/></linearGradient><linearGradient id="linear-gradient-14" x1="0.37" y1="99.61" x2="27.73" y2="60.35" xlink:href="#linear-gradient-5"/><linearGradient id="linear-gradient-15" x1="28.17" y1="204.34" x2="26.66" y2="207.8" gradientUnits="userSpaceOnUse"><stop offset="0.23"/><stop offset="1" stop-color="#1c1c1c"/></linearGradient><linearGradient id="linear-gradient-16" x1="49.53" y1="172.58" x2="20.88" y2="184.68" xlink:href="#linear-gradient-6"/><radialGradient id="radial-gradient-8" cx="11.5" cy="83.65" r="14.43" xlink:href="#radial-gradient"/><radialGradient id="radial-gradient-9" cx="-105.26" cy="176.19" r="32.98" gradientTransform="translate(44.58 62.5) scale(0.31 0.19)" xlink:href="#radial-gradient-2"/><radialGradient id="radial-gradient-10" cx="-56.85" cy="202.58" r="22.13" gradientTransform="translate(33.84 9.72) scale(0.39 0.36)" xlink:href="#radial-gradient-3"/><radialGradient id="radial-gradient-11" cx="-51.68" cy="199.55" r="22.13" gradientTransform="translate(31.8 3.22) scale(0.39 0.34)" xlink:href="#radial-gradient-7"/><linearGradient id="linear-gradient-17" x1="21.26" y1="98.3" x2="69.75" y2="64.23" xlink:href="#linear-gradient-13"/><linearGradient id="linear-gradient-18" x1="35.54" y1="100.2" x2="78.47" y2="38.59" xlink:href="#linear-gradient-5"/><linearGradient id="linear-gradient-19" x1="70.52" y1="202.86" x2="68.36" y2="207.8" xlink:href="#linear-gradient-15"/><linearGradient id="linear-gradient-20" x1="106.59" y1="159.05" x2="49.59" y2="190.87" xlink:href="#linear-gradient-6"/><radialGradient id="radial-gradient-12" cx="-20.07" cy="172.11" r="32.98" gradientTransform="translate(65.02 46.87) scale(0.6 0.26)" xlink:href="#radial-gradient-2"/><radialGradient id="radial-gradient-13" cx="11.3" cy="181.5" r="22.13" gradientTransform="translate(44.55 -18.06) scale(0.75 0.51)" xlink:href="#radial-gradient-3"/><radialGradient id="radial-gradient-14" cx="16.48" cy="167.76" r="22.13" gradientTransform="translate(40.67 -26.1) scale(0.75 0.5)" xlink:href="#radial-gradient-7"/></defs><title>desktop</title><g class="cls-2"><g id="Layer_1" data-name="Layer 1"><g class="cls-3"><path class="cls-4" d="M157.25,202.69a14,14,0,0,1-3.62-9.84v-3.92H123.14v3.92a14,14,0,0,1-3.63,9.84l-3.57,3.52h44.88Z" transform="translate(-16.06 -103.3)"/><rect class="cls-5" x="99.88" y="102.91" width="44.88" height="1.13"/><path class="cls-6" d="M202.47,184.25V105.82A2.52,2.52,0,0,0,200,103.3H76.82a2.52,2.52,0,0,0-2.52,2.52v78.43Z" transform="translate(-16.06 -103.3)"/><path class="cls-7" d="M74.3,176.63v11.28a2.52,2.52,0,0,0,2.52,2.52H200a2.52,2.52,0,0,0,2.52-2.52V176.63Z" transform="translate(-16.06 -103.3)"/><rect class="cls-8" x="62.13" y="3.97" width="120.27" height="65.11"/><path class="cls-9" d="M200,103.3h-90l48.1,81h44.43V105.82A2.52,2.52,0,0,0,200,103.3Z" transform="translate(-16.06 -103.3)"/><rect class="cls-10" x="62.13" y="3.97" width="120.27" height="65.11"/><rect class="cls-11" x="115.59" y="3.97" width="66.81" height="65.11"/><rect class="cls-12" x="62.13" y="36.53" width="53.45" height="32.55"/><rect class="cls-13" x="62.13" y="3.97" width="53.45" height="32.55"/><path class="cls-14" d="M272.06,206.45V156.17a1.72,1.72,0,0,0-1.72-1.72H186.78a1.72,1.72,0,0,0-1.72,1.72v50.28Z" transform="translate(-16.06 -103.3)"/><rect class="cls-15" x="171" y="54.15" width="82" height="44"/><path class="cls-16" d="M272.06,206.45V156.17a1.72,1.72,0,0,0-1.72-1.72h-61l30.9,52Z" transform="translate(-16.06 -103.3)"/><path class="cls-17" d="M175.06,205.45v2.19c.19.44,5.94,2,6.73,1.81h93.34c.79.18,6.55-1.37,5.93-1.81v-2.19Z" transform="translate(-16.06 -103.3)"/><path class="cls-18" d="M281.06,207.59c0,.47-.7.86-1.58.86H176.64c-.87,0-1.58-.39-1.58-.86V206.3c0-.47.71-.85,1.58-.85H279.48c.88,0,1.58.38,1.58.85Z" transform="translate(-16.06 -103.3)"/><path class="cls-19" d="M238.55,205.45h-21a.64.64,0,0,1-.52-.27v.62a.64.64,0,0,0,.63.65h20.75a.64.64,0,0,0,.62-.65v-.62A.61.61,0,0,1,238.55,205.45Z" transform="translate(-16.06 -103.3)"/><rect class="cls-20" x="207.43" y="54.15" width="45.57" height="43.55"/><rect class="cls-21" x="171" y="76.15" width="36.43" height="22"/><rect class="cls-22" x="171" y="54.15" width="36.43" height="22"/><rect class="cls-23" y="62.15" width="23" height="42" rx="1.2" ry="1.2"/><rect class="cls-24" x="1" y="66.15" width="21" height="35"/><path class="cls-25" d="M29.27,206a.5.5,0,0,1-.5.5H26.16a.5.5,0,0,1-.5-.5h0a.5.5,0,0,1,.5-.5h2.61a.5.5,0,0,1,.5.5Z" transform="translate(-16.06 -103.3)"/><path class="cls-26" d="M37.87,165.45H20.74l18.32,30.83V166.64A1.19,1.19,0,0,0,37.87,165.45Z" transform="translate(-16.06 -103.3)"/><rect class="cls-27" x="1" y="66.15" width="21" height="35"/><rect class="cls-28" x="1" y="89.13" width="21" height="12.07"/><rect class="cls-29" x="1" y="77.32" width="21" height="11.81"/><rect class="cls-30" x="1" y="66.15" width="21" height="11.18"/><rect class="cls-31" x="32" y="47.15" width="43" height="57" rx="2.22" ry="2.22"/><rect class="cls-32" x="33" y="50.15" width="40" height="50"/><path class="cls-33" d="M72.16,205.21c0,.41-.33.74-.74.24H67.57c-.41.5-.74.17-.74-.24h0a.77.77,0,0,1,.74-.76h3.85a.77.77,0,0,1,.74.76Z" transform="translate(-16.06 -103.3)"/><path class="cls-34" d="M88.85,149.45H55.21l34.11,57.41a2.21,2.21,0,0,0,1.74-2.16v-53A2.21,2.21,0,0,0,88.85,149.45Z" transform="translate(-16.06 -103.3)"/><rect class="cls-35" x="33" y="83.2" width="40" height="16.95"/><rect class="cls-36" x="33" y="66.53" width="40" height="16.67"/><rect class="cls-37" x="33" y="50.15" width="40" height="16.39"/></g></g></g></svg>